<svg width="835" height="518" viewBox="0 0 835 518" fill="none" xmlns="http://www.w3.org/2000/svg">
<path d="M303.5 284C305.965 291.619 310.431 305.258 313.24 305.713M313.24 305.713C316.751 306.282 359.353 292.901 394.785 315.892C423.13 334.285 438.729 366.826 442.986 380.797C445.364 393.291 448.507 422.817 442.057 440.969C441.719 447.405 442.455 462.411 448.103 470.946C447.952 471.367 447.645 471.84 447.158 472.22M313.24 305.713L317.613 313.071L447.158 472.22M307.665 307.315C303.205 308.596 296.513 324.316 293.724 332.016C283.31 357.47 292.956 386.332 299.081 397.581C316.027 433.865 359.851 448.401 369.541 454.301C377.293 459.021 419.685 467.52 439.912 471.18C443.676 473.524 445.962 473.153 447.158 472.22M307.665 307.315L299.5 284M307.665 307.315L309.379 309.184M311.093 311.054L309.379 309.184M322.399 324.765C316.279 341.85 306.003 380.463 313.87 398.24M322.399 324.765L309.379 309.184M322.399 324.765L349.074 357.317M349.074 357.317C340.513 373.136 327.381 410.856 343.335 435.186M349.074 357.317L389.334 406.216L394.403 412.841L412.834 436.931M336.859 337.082C356.221 334.975 400.024 334.723 420.333 350.573M359.53 365.855C373.612 362.301 407.961 361.172 432.697 385.083M390.549 404.579C405.07 401.376 435.031 399.161 438.71 415.919M412.834 436.931C410.579 440.649 406.346 449.385 407.448 454.587M412.834 436.931L447.158 472.22M371.031 386.847C366.383 398.006 358.55 424.71 364.407 442.26" stroke="#BF9B30"/>
<path d="M339.634 280.837C340.096 271.459 341.67 252.346 344.276 250.923M344.276 250.923C347.533 249.145 392.184 250.411 420.694 213.041C443.502 183.145 450.386 141.446 450.977 124.334C450.122 109.494 445.702 75.2266 434.866 56.8745C432.911 49.7363 429.83 32.5996 433.144 21.1586C432.89 20.734 432.474 20.3004 431.906 20.0304M344.276 250.923L346.652 241.22L431.906 20.0304M338.471 250.926C333.826 250.928 323.37 235.394 318.722 227.626C302.198 202.336 304.246 166.71 307.335 152.058C314.577 105.707 353.354 75.14 361.249 65.3561C367.565 57.529 406.481 34.2234 425.15 23.5489C428.203 19.6898 430.512 19.3676 431.906 20.0304M338.471 250.926L336 280.837M338.471 250.926L339.658 248.265M340.846 245.605L339.658 248.265M348.332 226.501C338.084 209.245 318.368 169.092 321.495 146.524M348.332 226.501L339.658 248.265M348.332 226.501L365.942 181.202M365.942 181.202C353.65 166.161 331.393 127.939 340.696 95.3724M365.942 181.202L392.579 113.092L395.814 103.99L407.578 70.8904M359.225 207.946C378.514 204.046 421.009 190.138 436.675 165.71M373.912 168.2C388.452 167.639 422.011 157.782 439.927 122.842M394.17 114.542C409.046 113.444 438.629 106.232 437.956 86.1688M407.578 70.8904C404.454 67.4339 398.145 58.9673 397.897 52.7523M407.578 70.8904L431.906 20.0304M379.746 140.834C372.422 129.774 358.083 102.24 359.32 80.579" stroke="#BF9B30"/>
<path d="M209.5 272.552C212.25 267.881 218.604 256.137 217.037 254.25M217.037 254.25C215.078 251.891 179.714 231.734 169.8 200.723C161.868 175.915 170.314 152.9 175.529 144.494C181.121 137.84 195.948 123.612 210.517 119.929C214.415 117.446 222.511 110.736 223.714 103.759C224.053 103.675 224.522 103.662 225.057 103.798M217.037 254.25L218.397 248.535L225.057 103.798M221.579 256.95C225.213 259.11 238.55 256.59 244.764 255.059C266.086 250.724 276.303 232.843 278.746 224.445C288.455 199.053 268.249 166.502 265.316 158.183C262.97 151.527 240.245 122.362 229.177 108.611C228.068 105.358 226.368 104.131 225.057 103.798M221.579 256.95L213.5 273M221.579 256.95L221.533 255.133M221.486 253.317L221.533 255.133M221.965 240.759C235.71 237.324 264.46 227.41 269.5 215.233M221.965 240.759L221.533 255.133M221.965 240.759L223.212 211.048M223.212 211.048C237.821 209.615 267.92 201.8 271.443 182.001M223.212 211.048L224.96 166.301L225.448 160.472L227.223 139.275M219.596 226.879C205.794 216.058 177.152 189.694 172.995 170.803M221.288 201.164C210.095 194.139 187.102 173.854 184.672 148.922M223.234 166.25C211.957 158.813 191.198 141.634 198.38 132.412M227.223 139.275C230.814 139.085 238.561 137.995 240.817 135.157M227.223 139.275L225.057 103.798M225.8 185.449C235.201 183.598 255.557 177.181 261.776 166.313" stroke="#BF9B30"/>
<path d="M155 271C156.63 276.421 158.27 294.607 156.213 296.131M156.213 296.131C153.642 298.037 112.793 309.693 95.0514 338.685C80.8582 361.878 83.7125 387.321 86.9138 397.143C90.933 405.282 102.435 423.399 116.292 430.755C119.627 434.243 126.17 443.062 125.659 450.437C125.982 450.607 126.455 450.736 127.03 450.731M156.213 296.131L156.174 302.266L127.03 450.731M161.487 294.521C165.707 293.233 178.602 299.104 184.522 302.201C205.062 311.897 210.984 332.573 211.378 341.699C214.924 369.867 186.367 397.863 181.331 405.573C177.301 411.74 147.031 435.676 132.4 446.873C130.469 449.897 128.442 450.719 127.03 450.731M161.487 294.521L157.863 271M161.487 294.521L160.99 296.352M160.492 298.183L160.99 296.352M157.863 311.04C170.945 317.94 197.631 335.142 199.721 348.745M157.863 311.04L160.99 296.352M157.863 311.04L151.758 341.486M151.758 341.486C166.213 346.57 194.788 361.978 193.449 382.936M151.758 341.486L142.433 387.309L141.483 393.343L138.025 415.284M152.019 324.53C135.344 332.076 99.7693 351.699 90.8703 369.827M147.357 351.033C134.267 355.378 105.927 370.239 97.2812 394.924M140.671 386.931C127.394 391.672 102.089 403.939 107.084 415.077M138.025 415.284C141.618 416.37 149.201 419.401 150.784 422.84M138.025 415.284L127.03 450.731M148.034 368.096C157.105 372.309 176.149 383.877 179.758 396.446" stroke="#BF9B30"/>
<path d="M519.5 270.5C524.727 276.448 534.403 286.504 537.079 285.868M537.079 285.868C540.423 285.073 572.911 257.146 613.536 264.669C646.037 270.687 672.862 294.203 682.212 305.208C689.305 315.582 703.869 341.02 705.381 359.782C707.647 365.708 714.284 378.957 722.701 384.545C722.734 384.98 722.651 385.521 722.37 386.045M537.079 285.868L543.895 290.87L722.37 386.045M532.767 289.388C529.319 292.203 529.645 308.863 530.24 316.841C531.143 343.659 551.216 366.077 561.139 373.933C590.653 400.321 635.357 397.098 646.313 398.806C655.078 400.172 696.105 392.042 715.522 387.806C719.798 388.517 721.68 387.331 722.37 386.045M532.767 289.388L515.5 271.5M532.767 289.388L535.035 290.434M537.302 291.481L535.035 290.434M552.808 299.626C554.186 317.302 560.459 355.928 574.532 369.018M552.808 299.626L535.035 290.434M552.808 299.626L589.47 319.027M589.47 319.027C588.177 336.471 591.558 375.357 615.424 391.34M589.47 319.027L644.713 348.099L651.855 352.182L677.824 367.027M570.557 305.341C586.907 296.23 625.697 279.688 650.048 286.407M602.158 322.827C613.244 314.379 643.29 300.567 674.785 312.903M645.139 346.171C656.754 337.877 682.471 324.721 692.42 338.453M677.824 367.027C677.305 371.217 677.03 380.667 680.083 384.945M677.824 367.027L722.37 386.045M620.74 337.461C621.062 349.248 624.756 376.232 636.953 389.867" stroke="#BF9B30"/>
<path d="M647.878 246.014C654.757 243.397 668.612 237.573 669.008 235.211M669.008 235.211C669.501 232.259 657.144 197.965 677.734 166.871C694.207 141.996 723.554 126.617 736.168 122.037C747.457 119.125 774.151 114.296 790.611 118.272C796.436 118.067 810.007 116.327 817.695 111.003C818.077 111.097 818.507 111.315 818.853 111.691M669.008 235.211L675.639 231.033L818.853 111.691M670.489 239.71C671.675 243.31 685.936 247.67 692.919 249.401C716.008 256.113 742.062 245.945 752.203 240.021C784.93 223.244 797.82 185.834 803.101 177.359C807.326 170.58 814.764 134.81 817.955 117.773C820.054 114.478 819.704 112.611 818.853 111.691M670.489 239.71L647.878 249.5M670.489 239.71L672.17 238.149M673.852 236.588L672.17 238.149M686.189 226.185C701.682 229.97 736.676 235.575 752.712 227.716M686.189 226.185L672.17 238.149M686.189 226.185L715.481 201.628M715.481 201.628C729.843 207.53 764.046 215.57 785.963 200.516M715.481 201.628L759.482 164.581L765.445 159.882L787.13 142.793M697.247 213.275C695.227 197.389 694.74 161.11 708.958 143.086M723.144 192.32C719.845 180.918 718.621 152.54 740.106 130.241M757.993 163.697C755.01 151.906 752.829 127.246 767.968 122.934M787.13 142.793C790.507 144.381 798.436 147.231 803.136 145.926M787.13 142.793L818.853 111.691M742.067 181.207C752.19 184.219 776.395 188.697 792.238 182.521" stroke="#BF9B30"/>
<path d="M497.5 266.5C498.665 257.379 501.602 239.878 504.055 238.651M504.055 238.651C507.12 237.117 547.087 241.106 575.664 206.406C598.526 178.646 608.044 138.39 609.945 121.732C610.366 107.202 609.145 73.498 600.89 54.9258C599.708 47.8413 598.316 30.933 602.206 19.9756C602.013 19.5458 601.674 19.0971 601.186 18.7986M504.055 238.651L506.964 229.332L601.186 18.7986M498.845 238.296C494.677 238.012 486.538 222.212 482.99 214.347C470.187 188.656 474.879 154.025 478.825 139.921C489.036 95.1482 526.282 67.719 534.15 58.6608C540.445 51.4143 577.234 31.0773 594.841 21.8147C597.89 18.238 599.988 18.066 601.186 18.7986M498.845 238.296L494 267M498.845 238.296L500.124 235.774M501.403 233.251L500.124 235.774M509.651 215.075C501.837 197.609 487.361 157.22 491.974 135.396M509.651 215.075L500.124 235.774M509.651 215.075L529.082 171.968M529.082 171.968C519.256 156.537 502.345 117.875 513.302 86.6769M529.082 171.968L558.441 107.163L562.073 98.4826L575.28 66.9168M520.912 197.645C538.534 195.029 577.781 184.081 593.796 161.216M537.275 159.775C550.368 160.124 581.272 152.577 600.148 119.595M559.753 108.676C573.189 108.522 600.313 103.311 601.317 83.6955M575.28 66.9168C572.754 63.3521 567.771 54.7031 568.046 48.6245M575.28 66.9168L601.186 18.7986M544.703 133.436C539.016 122.195 528.355 94.4489 531.199 73.393" stroke="#BF9B30"/>
<path d="M648 249.5L567.5 256L513.5 272L348.5 287L225 279.5L149.5 270C141.1 266.8 133.667 268.667 131 270C124.6 268.8 98 291.5 85.5 303C45.5 331 51.5 375.5 60.5 403.5C67.7 425.9 122.833 488.833 149.5 517.5H136L46 400C46 362.8 37.6667 338.5 33.5 331L1 249L4.5 235L46 318.5H54C74.1667 301 116.6 264.8 125 260C133.4 255.2 143.167 260.333 147 263.5L227.5 275.5L291 279L352.5 281.5L412 275.5L522 264L567.5 249.5L648 246" stroke="#BF9B30"/>
</svg>
