<svg width="296" height="675" viewBox="0 0 296 675" fill="none" xmlns="http://www.w3.org/2000/svg">
<path d="M350.253 373.15C344.715 376.491 333.187 382.937 331.375 381.997M331.375 381.997C329.109 380.823 312.706 354.863 280.412 352.96C254.576 351.437 228.103 363.533 218.095 369.772C209.941 375.963 192.051 391.652 185.718 404.887C182.388 408.745 173.775 417.088 165.965 419.594C165.819 419.902 165.731 420.306 165.794 420.734M331.375 381.997L324.917 384.371L165.794 420.734M333.603 385.308C335.385 387.956 330.517 399.891 327.86 405.528C319.744 424.673 298.595 437.195 289.036 441.064C259.766 454.744 227.422 444.369 218.802 443.625C211.906 443.029 183.658 429.784 170.397 423.236C167.02 422.977 165.95 421.784 165.794 420.734M333.603 385.308L351.647 375.223M333.603 385.308L331.627 385.653M329.65 385.998L331.627 385.653M315.86 389.068C309.928 401.546 294.54 428.223 280.442 435.112M315.86 389.068L331.627 385.653M315.86 389.068L283.215 396.43M283.215 396.43C279.333 409.222 266.023 436.608 243.841 443.815M283.215 396.43L234.069 407.407L227.625 409.059L204.195 415.068M301.077 389.985C291.449 380.48 267.201 361.582 247.229 362.031M272.726 396.88C266.829 388.8 248.323 373.444 221.481 376.65M234.287 405.942C227.954 397.878 212.486 383.773 201.276 391.867M204.195 415.068C203.418 418.178 200.999 425.031 197.541 427.561M204.195 415.068L165.794 420.734M254.847 404.068C251.335 412.496 241.097 431.257 228.243 438.875" stroke="#BF9B30"/>
<path d="M395.431 450.573C391.706 450.799 382.557 451.687 382.079 453.306M382.079 453.306C381.482 455.331 383.526 483.251 369.604 500.824C358.466 514.882 342.073 518.908 335.268 519.163C329.32 518.53 315.501 515.539 307.808 508.643C304.894 507.373 297.953 505.333 293.504 507.328C293.326 507.167 293.138 506.904 293.011 506.547M382.079 453.306L378.291 454.727L293.011 506.547M381.88 449.678C381.721 446.774 375.165 440.134 371.907 437.177C361.251 426.68 347.112 427.723 341.375 429.556C323.138 433.775 312.284 457.811 308.654 462.681C305.75 466.577 297.796 490.749 294.182 502.347C292.748 504.23 292.699 505.671 293.011 506.547M381.88 449.678L394.153 448.119M381.88 449.678L380.86 450.402M379.84 451.127L380.86 450.402M372.479 455.679C365.243 449.158 348.549 436.567 339.656 438.371M372.479 455.679L380.86 450.402M372.479 455.679L355.019 466.386M355.019 466.386C348.596 458.602 332.585 444.434 319.917 450.033M355.019 466.386L328.772 482.583L325.253 484.545L312.457 491.678M365.454 462.365C364.563 474.396 360.48 500.868 351.277 510.498M350.108 471.281C350.385 480.366 347.61 501.279 334.292 512.245M329.405 483.588C329.48 492.879 327.623 511.323 319.598 510.769M312.457 491.678C310.971 489.702 307.377 485.702 304.89 485.506M312.457 491.678L293.011 506.547M339.394 474.746C334.731 470.094 323.255 460.947 314.659 461.576" stroke="#BF9B30"/>
<path d="M275.355 274.512C276.751 269.245 278.786 259.86 277.397 258.578M277.397 258.578C275.66 256.976 247.237 249.174 235.954 223.107C226.928 202.254 230.08 177.914 232.784 168.35C235.992 160.318 244.946 142.234 255.089 134.162C257.607 130.592 262.634 121.714 262.599 114.764C262.835 114.578 263.176 114.418 263.584 114.377M277.397 258.578L277.641 252.767L263.584 114.377M281.062 259.685C283.994 260.571 293.391 253.982 297.722 250.577C312.705 239.757 317.818 219.691 318.502 211.011C322.265 184.033 303.276 159.769 300.05 152.862C297.469 147.337 277.086 127.056 267.217 117.607C265.983 114.894 264.583 114.276 263.584 114.377M281.062 259.685L277.461 276.41M281.062 259.685L280.79 257.99M280.519 256.294L280.79 257.99M279.227 244.318C288.802 236.74 308.472 218.317 310.556 205.259M279.227 244.318L280.79 257.99M279.227 244.318L276.254 215.948M276.254 215.948C286.72 209.982 307.648 193.11 307.63 173.353M276.254 215.948L271.681 173.26L271.276 167.618L269.8 147.098M275.686 231.997C264.207 226.17 239.874 210.398 234.374 193.924M273.559 207.249C264.479 204.171 245.06 192.338 240.03 169.63M270.416 173.759C261.22 170.32 243.837 160.704 247.869 149.752M269.8 147.098C272.394 145.784 277.9 142.309 279.174 138.924M269.8 147.098L263.584 114.377M274.796 191.025C281.41 186.312 295.416 173.835 298.53 161.637" stroke="#BF9B30"/>
<path d="M212.12 210.685C207.986 207.766 199.342 202.1 197.841 202.782M197.841 202.782C195.964 203.635 181.103 223.863 155.433 224.065C134.898 224.227 114.851 213.395 107.395 207.959C101.401 202.637 88.4022 189.265 84.3614 178.347C82.0102 175.103 75.81 168.029 69.8186 165.689C69.7259 165.436 69.6857 165.106 69.7672 164.764M197.841 202.782L192.91 200.605L69.7672 164.764M199.844 200.208C201.447 198.148 198.469 188.337 196.78 183.688C191.76 167.937 175.955 156.981 168.68 153.472C146.538 141.249 120.212 148.271 113.343 148.515C107.847 148.711 84.55 158.213 73.5881 162.939C70.8998 163.009 69.9671 163.925 69.7672 164.764M199.844 200.208L214.112 209.345M199.844 200.208L198.307 199.848M196.77 199.489L198.307 199.848M186.092 196.448C182.313 186.156 172.094 164.039 161.452 157.91M186.092 196.448L198.307 199.848M186.092 196.448L160.821 189.175M160.821 189.175C158.686 178.714 150.162 156.112 133.152 149.394M160.821 189.175L122.769 178.31L117.796 176.714L99.7117 170.91M174.472 195.101C166.167 202.359 145.618 216.578 129.863 215.393M152.562 188.38C147.31 194.644 131.56 206.248 110.574 202.56M122.835 179.499C117.24 185.732 103.982 196.453 95.7109 189.473M99.7117 170.91C99.3241 168.373 97.9116 162.755 95.363 160.575M99.7117 170.91L69.7672 164.764M138.952 181.855C136.791 174.924 130.066 159.394 120.46 152.729" stroke="#BF9B30"/>
<path d="M281.507 288.6C275.847 291.44 264.718 296.49 263.076 295.563M263.076 295.563C261.023 294.403 247.973 270.07 217.18 267.102C192.544 264.727 165.885 274.767 155.635 280.084C147.168 285.428 128.373 299.076 120.924 310.922C117.328 314.319 108.198 321.611 100.443 323.602C100.272 323.878 100.145 324.243 100.162 324.636M263.076 295.563L256.633 297.484L100.162 324.636M264.871 298.671C266.307 301.158 260.398 311.873 257.264 316.919C247.491 334.095 225.898 344.727 216.323 347.896C186.816 359.276 156.853 348.569 148.658 347.561C142.101 346.754 116.367 333.582 104.319 327.097C101.106 326.732 100.203 325.602 100.162 324.636M264.871 298.671L283.135 290.405M264.871 298.671L262.939 298.911M261.007 299.151L262.939 298.911M247.454 301.43C240.468 312.6 222.936 336.379 208.693 342.133M247.454 301.43L262.939 298.911M247.454 301.43L215.363 306.91M215.363 306.91C210.312 318.445 194.701 342.95 172.667 348.688M215.363 306.91L167.063 315.065L160.708 316.328L137.6 320.924M233.173 301.704C224.919 292.656 203.608 274.473 184.396 274.124M205.251 306.922C200.429 299.318 184.262 284.588 158.171 286.494M167.424 313.735C162.183 306.129 148.8 292.658 137.204 299.623M137.6 320.924C136.532 323.735 133.5 329.902 129.92 332.08M137.6 320.924L100.162 324.636M187.349 312.806C183.105 320.369 171.335 337.114 158.21 343.583" stroke="#BF9B30"/>
<path d="M214.065 209.275L248.657 252.701L278.514 277.359L350.374 365.724L393.457 439.06L416.986 485.782C418.379 491.804 422.297 495.327 424.082 496.336C425.85 500.449 449.027 506.9 460.395 509.612C491.741 521.671 514.874 501.148 527.425 485.254C537.467 472.538 552.29 416.902 558.447 390.673L563.625 398.374L530.987 494.871C509.725 509.166 499.032 523.258 496.343 528.517L461.941 578.569L452.597 581.952L484.405 526.19L481.336 521.626C463.599 516.846 426.633 506.55 420.667 503.602C414.702 500.655 413.89 493.11 414.23 489.706L390.212 439.171L367.856 401.601L345.697 365.555L319.446 333.918L270.681 275.584L244.942 255.199L212.065 210.62" stroke="#BF9B30"/>
</svg>
