<svg width="343" height="655" viewBox="0 0 343 655" fill="none" xmlns="http://www.w3.org/2000/svg">
<path d="M-16.9038 274.683C-20.1331 278.963 -25.893 286.652 -25.0641 288.363M-25.0641 288.363C-24.028 290.502 -0.33958 308.649 0.663162 336.87C1.46536 359.447 -10.3791 380.497 -16.4015 388.2C-22.3357 394.307 -37.3099 407.386 -49.7339 410.844C-53.3908 413.135 -61.3319 419.311 -63.8409 425.684C-64.1296 425.763 -64.5065 425.777 -64.9018 425.657M-25.0641 288.363L-27.4178 293.586L-64.9018 425.657M-28.0819 285.931C-30.4962 283.985 -41.6804 286.374 -46.9707 287.812C-64.9185 291.911 -77.0321 308.29 -80.8454 315.968C-94.2247 339.195 -85.3663 368.751 -84.8796 376.32C-84.4903 382.375 -72.8734 408.826 -67.1136 421.295C-66.9534 424.255 -65.8721 425.362 -64.9018 425.657M-28.0819 285.931L-18.4394 272.496M-28.0819 285.931L-28.4485 287.588M-28.8151 289.244L-28.4485 287.588M-31.9885 300.702C-43.7011 303.929 -68.8068 313.167 -75.5289 324.308M-31.9885 300.702L-28.4485 287.588M-31.9885 300.702L-39.5874 327.813M-39.5874 327.813C-51.5431 329.218 -77.2564 336.55 -84.4647 354.635M-39.5874 327.813L-50.9291 368.642L-52.6138 373.963L-58.74 393.31M-33.1877 313.348C-24.5995 323.125 -7.64535 346.98 -8.53412 364.184M-40.2522 336.815C-32.8984 343.149 -19.0927 361.497 -22.7004 384.223M-49.5652 368.677C-42.2357 375.385 -29.5193 390.915 -37.2906 399.375M-58.74 393.31C-61.643 393.508 -68.0559 394.554 -70.4836 397.158M-58.74 393.31L-64.9018 425.657M-47.3409 351.182C-55.2407 352.933 -72.8825 358.924 -80.2519 368.88" stroke="#BF9B30"/>
<path d="M-1.29846 293.225C4.0185 289.869 15.0974 283.376 16.8773 284.254M16.8773 284.254C19.1022 285.351 35.5504 310.254 66.9753 311.465C92.1153 312.435 117.61 300.155 127.215 293.895C135.019 287.717 152.102 272.116 157.999 259.129C161.161 255.314 169.369 247.036 176.911 244.445C177.047 244.144 177.125 243.749 177.055 243.335M16.8773 284.254L23.1069 281.82L177.055 243.335M14.647 281.081C12.8628 278.542 17.3617 266.847 19.8342 261.317C27.3501 242.551 47.6606 229.963 56.8764 226.015C85.0583 212.141 116.696 221.584 125.089 222.137C131.803 222.58 159.516 234.893 172.533 240.994C175.82 241.179 176.882 242.317 177.055 243.335M14.647 281.081L-2.69368 291.238M14.647 281.081L16.5611 280.706M18.475 280.332L16.5611 280.706M31.8185 277.075C37.3407 264.832 51.7771 238.602 65.3449 231.629M31.8185 277.075L16.5611 280.706M31.8185 277.075L63.404 269.275M63.404 269.275C66.9278 256.767 79.33 229.89 100.749 222.447M63.404 269.275L110.957 257.636L117.187 255.903L139.842 249.6M46.1689 275.892C55.7117 284.939 79.6477 302.825 99.0494 301.993M73.5894 268.631C79.4788 276.366 97.7642 290.924 123.79 287.278M110.772 259.064C117.085 266.776 132.394 280.177 143.132 272.09M139.842 249.6C140.537 246.562 142.755 239.854 146.066 237.328M139.842 249.6L177.055 243.335M90.8266 261.292C94.0758 253.032 103.66 234.597 116.006 226.939" stroke="#BF9B30"/>
<path d="M-46.7174 218.878C-43.1017 218.584 -34.2261 217.54 -33.7935 215.957M-33.7935 215.957C-33.2528 213.978 -35.7832 186.885 -22.5945 169.532C-12.0436 155.65 3.81133 151.413 10.4199 151.03C16.2134 151.528 29.7032 154.162 37.3145 160.712C40.1718 161.888 46.9576 163.733 51.2427 161.706C51.4189 161.859 51.606 162.111 51.7367 162.455M-33.7935 215.957L-30.1396 214.502L51.7367 162.455M-33.5295 219.48C-33.3183 222.298 -26.8169 228.621 -23.5926 231.43C-13.0312 241.421 0.690165 240.128 6.23068 238.233C23.8733 233.773 33.9549 210.199 37.3881 205.395C40.1348 201.551 47.3944 177.903 50.6809 166.56C52.0379 164.702 52.0574 163.301 51.7367 162.455M-33.5295 219.48L-45.4272 221.237M-33.5295 219.48L-32.5521 218.755M-31.5746 218.031L-32.5521 218.755M-24.5087 213.461C-17.3493 219.655 -0.878532 231.562 7.72966 229.633M-24.5087 213.461L-32.5521 218.755M-24.5087 213.461L-7.74747 202.711M-7.74747 202.711C-1.35381 210.149 14.4843 223.601 26.6876 217.909M-7.74747 202.711L17.4467 186.451L20.8285 184.475L33.126 177.29M-17.8112 206.825C-17.1797 195.115 -13.7277 169.309 -4.97093 159.768M-3.06968 197.857C-3.5163 189.033 -1.22695 168.655 11.5034 157.734M16.8116 185.488C16.5579 176.459 18.0032 158.498 25.814 158.878M33.126 177.29C34.609 179.181 38.1803 182.997 40.6016 183.139M33.126 177.29L51.7367 162.455M7.27548 194.277C11.8986 198.706 23.2304 207.368 31.5733 206.587" stroke="#BF9B30"/>
<path d="M73.4186 387.602C72.1652 392.749 70.3694 401.909 71.745 403.127M71.745 403.127C73.4645 404.65 101.242 411.67 112.715 436.78C121.894 456.867 119.306 480.583 116.864 489.93C113.902 497.8 105.552 515.552 95.8509 523.597C93.4732 527.116 88.7601 535.843 88.9294 542.596C88.7035 542.782 88.3753 542.944 87.9803 542.992M71.745 403.127L71.6205 408.78L87.9803 542.992M68.1611 402.124C65.294 401.322 56.2896 407.91 52.1457 411.305C37.795 422.117 33.2158 441.718 32.7201 450.168C29.5891 476.459 48.5179 499.664 51.788 506.312C54.404 511.631 74.61 530.937 84.386 539.925C85.6381 542.537 87.0106 543.109 87.9803 542.992M68.1611 402.124L71.3349 385.8M68.1611 402.124L68.458 403.767M68.7549 405.409L68.458 403.767M70.2439 417.022C61.0857 424.576 42.3265 442.868 40.5552 455.6M70.2439 417.022L68.458 403.767M70.2439 417.022L73.6866 444.534M73.6866 444.534C63.6302 450.539 43.6182 467.349 44.021 486.549M73.6866 444.534L78.9624 485.928L79.4668 491.404L81.3011 511.316M73.9259 428.926C85.196 434.362 109.153 449.208 114.82 465.109M76.4751 452.934C85.3607 455.746 104.465 466.862 109.796 488.83M80.1826 485.419C89.1873 488.579 106.27 497.579 102.564 508.303M81.3011 511.316C78.8054 512.644 73.521 516.13 72.3488 519.445M81.3011 511.316L87.9803 542.992M75.589 468.726C69.2527 473.437 55.883 485.839 53.0937 497.755" stroke="#BF9B30"/>
<path d="M136.123 448.381C140.198 451.135 148.709 456.471 150.155 455.778M150.155 455.778C151.962 454.912 166.012 434.96 190.957 434.256C210.913 433.693 230.608 443.823 237.961 448.959C243.89 454.012 256.785 466.75 260.925 477.281C263.273 480.387 269.437 487.138 275.306 489.294C275.401 489.539 275.447 489.858 275.374 490.192M150.155 455.778L154.99 457.797L275.374 490.192M148.258 458.319C146.741 460.352 149.826 469.829 151.558 474.313C156.744 489.521 172.319 499.856 179.458 503.122C201.216 514.562 226.667 507.217 233.339 506.844C238.676 506.546 261.134 496.851 271.696 492.041C274.308 491.92 275.196 491.011 275.374 490.192M148.258 458.319L134.212 449.722M148.258 458.319L149.759 458.638M151.26 458.957L149.759 458.638M161.698 461.701C165.571 471.629 175.934 492.92 186.397 498.666M161.698 461.701L149.759 458.638M161.698 461.701L186.401 468.27M186.401 468.27C188.68 478.394 197.405 500.19 214.069 506.382M186.401 468.27L223.596 478.076L228.461 479.529L246.151 484.812M173.018 462.78C180.948 455.563 200.643 441.338 215.979 442.179M194.443 468.878C199.426 462.688 214.508 451.099 234.977 454.269M223.509 476.922C228.825 470.754 241.502 460.073 249.677 466.692M246.151 484.812C246.577 487.269 248.059 492.701 250.579 494.769M246.151 484.812L275.374 490.192M207.798 474.95C210.034 481.644 216.873 496.603 226.339 502.89" stroke="#BF9B30"/>
<path d="M67.1647 374.033C72.6109 371.161 83.3292 366.033 84.9431 366.902M84.9431 366.902C86.9605 367.988 100.118 391.378 130.106 393.653C154.095 395.474 179.811 385.19 189.67 379.82C197.794 374.46 215.796 360.824 222.805 349.165C226.234 345.792 234.966 338.526 242.464 336.437C242.625 336.166 242.741 335.808 242.717 335.426M84.9431 366.902L91.1673 364.907L242.717 335.426M83.1377 363.917C81.6934 361.529 87.2276 350.999 90.1752 346.032C99.3399 329.147 120.12 318.388 129.364 315.119C157.821 303.477 187.151 313.289 195.136 314.107C201.524 314.761 226.793 327.053 238.629 333.117C241.759 333.408 242.659 334.489 242.717 335.426M83.1377 363.917L65.547 372.312M83.1377 363.917L85.011 363.646M86.8843 363.374L85.011 363.646M100.012 360.892C106.584 349.898 123.161 326.443 136.892 320.568M100.012 360.892L85.011 363.646M100.012 360.892L131.095 354.931M131.095 354.931C135.78 343.621 150.475 319.498 171.779 313.486M131.095 354.931L177.881 346.051L184.033 344.697L206.402 339.774M113.887 360.343C122.086 368.972 143.153 386.221 161.832 386.181M140.923 354.72C145.758 362.014 161.758 376.009 187.08 373.64M177.555 347.351C182.798 354.639 196.068 367.466 207.203 360.467M206.402 339.774C207.386 337.021 210.212 330.969 213.649 328.781M206.402 339.774L242.717 335.426M158.209 348.648C162.186 341.213 173.299 324.708 185.93 318.162" stroke="#BF9B30"/>
<path d="M134.259 449.789L99.7925 408.27L70.293 384.898L-1.27209 300.444L-44.5745 230.027L-68.3532 185.086C-69.8244 179.262 -73.7011 175.915 -75.4555 174.97C-77.2549 171.009 -99.907 165.197 -111.008 162.787C-141.709 151.687 -163.793 172.09 -175.683 187.784C-185.194 200.34 -198.517 254.702 -203.99 280.313L-209.173 272.931L-179.331 178.509C-158.944 164.196 -148.827 150.29 -146.316 145.125L-113.855 95.8039L-104.839 92.3312L-134.667 147.151L-131.596 151.526C-114.263 155.82 -78.134 165.095 -72.2787 167.842C-66.4233 170.588 -65.487 177.904 -65.7508 181.219L-41.4226 229.855L-18.9626 265.924L3.27769 300.516L29.4083 330.743L77.9405 386.468L103.355 405.77L136.177 448.442" stroke="#BF9B30"/>
</svg>
